# xmcd
#
# Track frame offsets: 
#        150
#        14825
#        27964
#        40475
#        56326
#        69948
#        86431
#        101384
#        117504
#        137531
#        149354
#        167945
#        181226
#        192129
#        206413
#        223716
#
# Disc length: 3224 seconds
#
# Revision: 1
# Processed by: cddbd v1.5.2PL0 Copyright (c) Steve Scherf et al.
# Submitted via: ExactAudioCopy v0.99pb5
#
DISCID=e30c9610
DTITLE=Tom Phillips And The Men Of Constant Sorrow - King Of The Broke
DTITLE=n Heart
DYEAR=2004
DGENRE=country
TTITLE0=Man Of Constant Sorrow
TTITLE1=Honky Tonk Blues
TTITLE2=High Flyer
TTITLE3=Silver Wings
TTITLE4=Alberta Song
TTITLE5=Carmelita
TTITLE6=Don't Try And Catch Me When I Fall
TTITLE7=Cars And Women
TTITLE8=Lack Of Rain
TTITLE9=Beer Stained Memories
TTITLE10=Like A Rodeo
TTITLE11=Honky Tonk Song
TTITLE12=(Is Anybody Going To) San Antone
TTITLE13=King Of The Broken Heart
TTITLE14=Someday Soon
TTITLE15=Blue Yodel No. 1 (T For Texas)
EXTD=
EXTT0=
EXTT1=
EXTT2=
EXTT3=
EXTT4=
EXTT5=
EXTT6=
EXTT7=
EXTT8=
EXTT9=
EXTT10=
EXTT11=
EXTT12=
EXTT13=
EXTT14=
EXTT15=
PLAYORDER=
